<svg width="80" height="80" viewBox="0 0 80 80" fill="none" xmlns="http://www.w3.org/2000/svg">
    <path fill-rule="evenodd" clip-rule="evenodd" d="M8 12H72V12.9825H8V12ZM72 25.7544H8V26.7368H72V25.7544ZM8 39.5088H72V40.4912H8V39.5088ZM72 53.2632H8V54.2456H72V53.2632ZM72 67.0175H8V68H72V67.0175Z" fill="white" fill-opacity="0.1"/>
    <path d="M59 14C59 12.8954 59.8954 12 61 12H70C71.1046 12 72 12.8954 72 14V20H59V14Z" fill="#2D8BBA"/>
    <rect x="59" y="20" width="13" height="23" fill="#41B8D5"/>
    <rect x="59" y="43" width="13" height="25" fill="#6CE5E8"/>
    <rect x="42" y="47" width="13" height="21" fill="#6CE5E8"/>
    <rect x="42" y="35" width="13" height="12" fill="#41B8D5"/>
    <path d="M42 25C42 23.8954 42.8954 23 44 23H53C54.1046 23 55 23.8954 55 25V35H42V25Z" fill="#2D8BBA"/>
    <rect x="25" y="52" width="13" height="16" fill="#6CE5E8"/>
    <rect x="25" y="42" width="13" height="10" fill="#41B8D5"/>
    <path d="M25 36C25 34.8954 25.8954 34 27 34H36C37.1046 34 38 34.8954 38 36V42H25V36Z" fill="#2D8BBA"/>
    <rect x="8" y="61" width="13" height="7" fill="#6CE5E8"/>
    <rect x="8" y="49" width="13" height="12" fill="#41B8D5"/>
    <path d="M8 47C8 45.8954 8.89543 45 10 45H19C20.1046 45 21 45.8954 21 47V49H8V47Z" fill="#2D8BBA"/>
</svg>
