<svg width="80" height="80" viewBox="0 0 80 80" fill="none" xmlns="http://www.w3.org/2000/svg">
<path d="M18.5878 63.7806C22.467 67.2734 27.1417 69.7643 32.2043 71.0359C37.267 72.3076 42.5638 72.3214 47.6331 71.0763C52.7023 69.8312 57.39 67.3649 61.2874 63.8924C65.1848 60.42 68.1735 56.0468 69.993 51.1543C71.8125 46.2618 72.4076 40.9984 71.7262 35.8232C71.0449 30.6479 69.1079 25.7179 66.0841 21.463C63.0603 17.2081 59.0415 13.7575 54.3782 11.4121C49.7149 9.06671 44.5486 7.8977 39.3298 8.00702L40 40L18.5878 63.7806Z" fill="#6CE5E8"/>
<path d="M17.3726 17.3726C14.2861 20.4591 11.8637 24.1443 10.2544 28.2017C8.64507 32.2592 7.88283 36.6029 8.01458 40.9658C8.14632 45.3288 9.16926 49.6186 11.0205 53.5715C12.8717 57.5245 15.512 61.0569 18.7791 63.9515L40 40L17.3726 17.3726Z" fill="#41B8D5"/>
<path d="M40 8C35.7977 8 31.6365 8.8277 27.7541 10.4359C23.8717 12.044 20.3441 14.4011 17.3726 17.3726L40 40V8Z" fill="#2D8BBA"/>
</svg>
